{
  "accessors": [
    {
      "bufferView": 0,
      "componentType": 5126,
      "count": 5911,
      "type": "VEC3",
      "max": [
        75.52867,
        77.9429855,
        76.1977539
      ],
      "min": [
        -75.52867,
        -77.9429855,
        -76.1977539
      ]
    },
    {
      "bufferView": 1,
      "componentType": 5125,
      "count": 35454,
      "type": "SCALAR",
      "max": [
        5910.0
      ],
      "min": [
        0.0
      ]
    },
    {
      "bufferView": 2,
      "componentType": 5126,
      "count": 5911,
      "type": "VEC3",
      "max": [
        0.999889553,
        0.999920547,
        0.9998146
      ],
      "min": [
        -0.999653339,
        -0.9998937,
        -0.9971825
      ]
    }
  ],
  "asset": {
    "version": "2.0"
  },
  "buffers": [
    {
      "uri": "data:application/octet-stream;base64,",
      "byteLength": 70932
    },
    {
      "uri": "data:application/octet-stream;base64,",
      "byteLength": 141816
    },
    {
      "uri": "data:application/octet-stream;base64,",
      "byteLength": 70932
    }
  ],
  "bufferViews": [
    {
      "buffer": 0,
      "byteLength": 70932,
      "target": 34962
    },
    {
      "buffer": 1,
      "byteLength": 141816,
      "target": 34963
    },
    {
      "buffer": 2,
      "byteLength": 70932,
      "target": 34962
    }
  ],
  "materials": [
    {
      "pbrMetallicRoughness": {
        "baseColorFactor": [
          0.957369566,
          0.957369566,
          0.957369566,
          1.0
        ],
        "metallicFactor": 0.0
      }
    }
  ],
  "meshes": [
    {
      "primitives": [
        {
          "attributes": {
            "POSITION": 0,
            "NORMAL": 2
          },
          "indices": 1,
          "material": 0
        }
      ]
    }
  ],
  "nodes": [
    {
      "mesh": 0
    }
  ],
  "samplers": [
    {
      "magFilter": 9729,
      "minFilter": 9729
    }
  ],
  "scene": 0,
  "scenes": [
    {
      "nodes": [
        0
      ],
      "extensions": {}
    }
  ],
  "extensions": {}
}